<svg xmlns="http://www.w3.org/2000/svg" viewBox="0 0 1364 960">
  <g data-name="Layer 1">
    <path fill="#c2cbf5"
      d="M171.81,664a18.57,18.57,0,1,0,23.06-12.57A18.57,18.57,0,0,0,171.81,664Zm22.42,6.6a4.8,4.8,0,1,1-3.25-6A4.8,4.8,0,0,1,194.23,670.58Z" />
    <path fill="#c2cbf5"
      d="M196.53,615.57l-6.75,10h0a42.79,42.79,0,0,0-9.55,1l-8.84-8.29a4.75,4.75,0,0,0-5.52-.7L159,621.34a4.73,4.73,0,0,0-2.4,5.06l2.27,11.84h0a43.66,43.66,0,0,0-6,7.46h0l-12.11.4a4.74,4.74,0,0,0-4.4,3.4L134.08,657a4.78,4.78,0,0,0,1.89,5.28l10,6.76h0a42.76,42.76,0,0,0,1,9.54h0l-8.28,8.84A4.75,4.75,0,0,0,138,693l3.76,6.89a4.75,4.75,0,0,0,5.06,2.39L158.63,700a43,43,0,0,0,7.49,6l.39,12.11a4.75,4.75,0,0,0,3.41,4.4l7.53,2.22a4.75,4.75,0,0,0,5.27-1.89l6.76-10h0a43,43,0,0,0,9.56-1l8.84,8.28a4.74,4.74,0,0,0,5.52.71l6.89-3.76a4.75,4.75,0,0,0,2.39-5.06l-2.27-11.84a42.37,42.37,0,0,0,6-7.47h0l12.12-.39a4.74,4.74,0,0,0,4.4-3.41l2.22-7.53a4.75,4.75,0,0,0-1.89-5.27l-10-6.76h0a42.73,42.73,0,0,0-1-9.55h0l8.29-8.85a4.75,4.75,0,0,0,.7-5.52l-3.75-6.89a4.76,4.76,0,0,0-5.07-2.39l-11.83,2.27a43,43,0,0,0-7.48-6l-.4-12.1a4.73,4.73,0,0,0-3.4-4.4l-7.53-2.22A4.77,4.77,0,0,0,196.53,615.57ZM219.59,678a31.24,31.24,0,1,1-21.15-38.77A31.23,31.23,0,0,1,219.59,678Z" />
    <path fill="#e8ecff"
      d="M1178.61,550.87c-17.73-22.29-42.34-38.12-61.31-59.36-114.94-138.69,10.93-453-294.7-404.45-102.93,23.06-129,161.72-305.58,102.4-150.8-50.66-263.25-55.35-339.6,85.75-42.92,90.06-29.36,200.94,22.06,286.44,14.69,24.44,32.87,49,33.44,77.54.51,25.31-13.07,48.46-25.81,70.33-41.53,65-23.3,94.57,29.36,125.51l910.77-3.33C1194.58,749.27,1243.8,636.11,1178.61,550.87Z" />
    <path fill="#c2cbf5"
      d="M791.66,179.75a20.8,20.8,0,1,0,25.83-14.08A20.82,20.82,0,0,0,791.66,179.75Zm25.12,7.39a5.38,5.38,0,1,1-3.64-6.67A5.37,5.37,0,0,1,816.78,187.14Z" />
    <path fill="#c2cbf5"
      d="M819.35,125.53l-7.57,11.17h0a48.25,48.25,0,0,0-10.7,1.15l-9.9-9.28a5.33,5.33,0,0,0-6.19-.79L777.27,132a5.33,5.33,0,0,0-2.68,5.67l2.55,13.27h0a48.45,48.45,0,0,0-6.75,8.36h0l-13.56.45a5.3,5.3,0,0,0-4.93,3.81L749.4,172a5.34,5.34,0,0,0,2.12,5.91l11.18,7.58h0a47.06,47.06,0,0,0,1.14,10.69h0l-9.28,9.9a5.31,5.31,0,0,0-.79,6.18L758,220a5.32,5.32,0,0,0,5.67,2.68l13.25-2.54a48.74,48.74,0,0,0,8.38,6.76l.44,13.56a5.34,5.34,0,0,0,3.82,4.93l8.43,2.48a5.33,5.33,0,0,0,5.91-2.12l7.57-11.16h0a48.4,48.4,0,0,0,10.71-1.15l9.9,9.27a5.31,5.31,0,0,0,6.18.79l7.72-4.2a5.34,5.34,0,0,0,2.68-5.68l-2.55-13.26a47.16,47.16,0,0,0,6.75-8.36h0l13.57-.44a5.33,5.33,0,0,0,4.94-3.82l2.48-8.43a5.34,5.34,0,0,0-2.12-5.91l-11.17-7.57h0a48.15,48.15,0,0,0-1.14-10.69h0l9.28-9.9a5.33,5.33,0,0,0,.79-6.19l-4.21-7.72a5.3,5.3,0,0,0-5.67-2.67l-13.25,2.54a47.81,47.81,0,0,0-8.38-6.76l-.44-13.56a5.33,5.33,0,0,0-3.82-4.93l-8.43-2.48A5.32,5.32,0,0,0,819.35,125.53Zm25.83,70a35,35,0,1,1-23.69-43.43A35,35,0,0,1,845.18,195.5Z" />
    <path fill="#c2cbf5"
      d="M1097.59,337.36a11.71,11.71,0,1,0,14.54-7.93A11.7,11.7,0,0,0,1097.59,337.36Zm14.14,4.16a3,3,0,1,1-2-3.76A3,3,0,0,1,1111.73,341.52Z" />
    <path fill="#c2cbf5"
      d="M1113.18,306.83l-4.26,6.28h0a27.57,27.57,0,0,0-6,.65l-5.57-5.22a3,3,0,0,0-3.49-.45l-4.34,2.37a3,3,0,0,0-1.51,3.2l1.43,7.46h0a26.75,26.75,0,0,0-3.8,4.71h0l-7.64.25a3,3,0,0,0-2.78,2.15l-1.4,4.74a3,3,0,0,0,1.2,3.33l6.29,4.27h0a27.48,27.48,0,0,0,.64,6h0l-5.22,5.58a3,3,0,0,0-.45,3.48l2.37,4.35a3,3,0,0,0,3.2,1.5l7.46-1.43a26.88,26.88,0,0,0,4.72,3.81l.25,7.63a3,3,0,0,0,2.15,2.78l4.74,1.4a3,3,0,0,0,3.33-1.19l4.26-6.29h0a26.91,26.91,0,0,0,6-.65l5.58,5.23a3,3,0,0,0,3.48.44l4.35-2.37a3,3,0,0,0,1.5-3.19l-1.43-7.47a26.31,26.31,0,0,0,3.8-4.71h0l7.64-.24a3,3,0,0,0,2.78-2.15l1.4-4.75a3,3,0,0,0-1.19-3.33l-6.29-4.26h0a26.76,26.76,0,0,0-.65-6h0l5.23-5.57a3,3,0,0,0,.44-3.49l-2.37-4.34a3,3,0,0,0-3.19-1.51l-7.46,1.43a27.63,27.63,0,0,0-4.72-3.81l-.25-7.63a3,3,0,0,0-2.15-2.78l-4.75-1.4A3,3,0,0,0,1113.18,306.83Zm14.55,39.4a19.7,19.7,0,1,1-13.34-24.46A19.71,19.71,0,0,1,1127.73,346.23Z" />
    <path fill="#c2cbf5"
      d="M543,147.33a11.71,11.71,0,1,0,14.54-7.93A11.71,11.71,0,0,0,543,147.33Zm14.14,4.16a3,3,0,1,1-2-3.76A3,3,0,0,1,557.15,151.49Z" />
    <path fill="#c2cbf5"
      d="M558.6,116.8l-4.26,6.29h0a27.57,27.57,0,0,0-6,.64l-5.57-5.22a3,3,0,0,0-3.49-.44l-4.34,2.37a3,3,0,0,0-1.51,3.19l1.43,7.47h0a27.12,27.12,0,0,0-3.8,4.71h0l-7.64.25a3,3,0,0,0-2.78,2.15l-1.4,4.75a3,3,0,0,0,1.2,3.32l6.29,4.27h0a26.82,26.82,0,0,0,.64,6h0l-5.22,5.58a3,3,0,0,0-.45,3.48L524,170a3,3,0,0,0,3.2,1.51l7.46-1.43a27.29,27.29,0,0,0,4.72,3.8l.25,7.64a3,3,0,0,0,2.15,2.77l4.74,1.4a3,3,0,0,0,3.33-1.19l4.26-6.29h0a27.5,27.5,0,0,0,6-.64l5.58,5.22a3,3,0,0,0,3.48.44l4.35-2.37a3,3,0,0,0,1.5-3.19l-1.43-7.47a26.31,26.31,0,0,0,3.8-4.71h0l7.64-.25a3,3,0,0,0,2.78-2.15l1.4-4.75a3,3,0,0,0-1.19-3.32l-6.29-4.27h0a26.76,26.76,0,0,0-.65-6h0l5.23-5.58a3,3,0,0,0,.44-3.48l-2.37-4.35a3,3,0,0,0-3.19-1.51l-7.46,1.43a27.27,27.27,0,0,0-4.73-3.8l-.24-7.64a3,3,0,0,0-2.15-2.78l-4.75-1.39A3,3,0,0,0,558.6,116.8Zm14.55,39.4a19.7,19.7,0,1,1-13.34-24.46A19.71,19.71,0,0,1,573.15,156.2Z" />
    <path fill="#c2cbf5"
      d="M224.69,431c-9.95-20.81,24.7-23.49,37.32-17.46a179.31,179.31,0,0,0-14.15-26.69c-9.12,5.87-17.14,14.36-27.5,17.89-24.94,3.74-17-35,25.8-20.48A183.36,183.36,0,0,0,227,360.12c-9.42,5.56-17.82,13.81-28.4,17-24.94,2.58-15.75-34.75,25.49-20a176.38,176.38,0,0,0-21.81-18.86c-9.77,5.33-18.59,13.43-29.44,16.33-24.53,1.65-15.15-33.91,24.35-19.92A172.17,172.17,0,0,0,178,323.32c-11,.05-22.4,2.92-33.15.32C129,318,138,299.69,152.53,303.26c10.24,2.6,20.29,9.32,25.88,18.29A175.06,175.06,0,0,1,199,333.68c-22.87-36.17,10.5-53.1,13.95-28.63-.53,11-6.52,21.2-9.65,31.69a180.54,180.54,0,0,1,22,19c-14.17-41.27,23.07-49.91,20.28-25.1-3.25,10.56-11.57,18.9-17.21,28.28a184.82,184.82,0,0,1,19.24,24.24c-2.46-10-.71-21.53,4.18-30.6,7.18-13.13,26.8-7.39,20.27,8.07-5.46,9.85-15.48,16.45-23.05,24.66.08.11.15.23.23.35h.19l-.13.1a182.51,182.51,0,0,1,13.79,25.76c8.75-43.42,45.77-31.93,30.69-11.59-8,7.59-19.48,10.39-28.87,15.91,1,2,13.17,35.73,7.61,31.35a173.25,173.25,0,0,0-9.1-30.27C252.49,423,237.37,442.66,224.69,431Z" />
    <path fill="#c2cbf5"
      d="M1186.64,649.85c9.95-20.81-24.7-23.49-37.32-17.46a179.31,179.31,0,0,1,14.15-26.69c9.12,5.87,17.14,14.36,27.5,17.89,24.94,3.75,17-35-25.8-20.48A183.44,183.44,0,0,1,1184.29,579c9.42,5.55,17.82,13.8,28.4,17,24.94,2.58,15.75-34.75-25.49-20A175.74,175.74,0,0,1,1209,557.15c9.76,5.33,18.58,13.43,29.43,16.33,24.53,1.65,15.15-33.91-24.35-19.92a172.17,172.17,0,0,1,19.27-11.34c11,0,22.4,2.92,33.15.32,15.83-5.62,6.84-23.95-7.72-20.38-10.24,2.6-20.29,9.32-25.88,18.3a174.42,174.42,0,0,0-20.55,12.12c22.87-36.17-10.5-53.1-13.95-28.63.53,11,6.52,21.2,9.65,31.69a180.54,180.54,0,0,0-22,19c14.18-41.27-23.07-49.91-20.28-25.1,3.25,10.56,11.57,18.9,17.21,28.28a184.82,184.82,0,0,0-19.24,24.24c2.46-10,.71-21.53-4.18-30.59-7.18-13.14-26.8-7.4-20.27,8.06,5.46,9.85,15.48,16.45,23,24.66-.08.11-.15.23-.23.35h-.19l.13.1a182.51,182.51,0,0,0-13.79,25.76c-8.75-43.42-45.77-31.93-30.69-11.59,8,7.59,19.48,10.39,28.87,15.91-1,2-13.17,35.74-7.61,31.35a173.51,173.51,0,0,1,9.1-30.27C1158.84,641.94,1174,661.56,1186.64,649.85Z" />
    <path fill="#1ca4d9"
      d="M513.7,831.57C528,798.33,383.78,631,428.6,554.22l-94,31.09s69.24,112.74,37.57,242.35C368.75,841.53,510.43,839.2,513.7,831.57Z" />
    <path fill="#fff"
      d="M711.64,124,842.38,648.86A2124,2124,0,0,0,483,573.39q-6.91-.84-13.9-1.63c-18.94-2.16-74.29,4.94-134.5,13.55L320,587.42C267.66,595,218.07,562,205.4,511.17a100.59,100.59,0,0,1,9.95-73.8,102.23,102.23,0,0,1,58-47.32l10.53-3.39c61.19-19.79,118.25-39.07,136.44-49.38l4.34-2.48A1566.09,1566.09,0,0,0,711.64,124Z" />
    <path fill="#38bef2"
      d="M483,573.39c-4.61-.56-9.22-1.64-13.9-1.63-18.39,0-72.78,10.9-134.5,13.55a264,264,0,0,1-50.65-198.65c61.19-19.79,118.25-39.07,136.44-49.38l4.34-2.48A659.7,659.7,0,0,0,483,573.39Z" />
    <ellipse cx="775.08" cy="387.35" fill="#38bef2" rx="76.11" ry="270.02"
      transform="rotate(-13.5 775.032 387.346)" />
    <ellipse cx="785.79" cy="392.11" fill="#fff" rx="56.21" ry="234.26"
      transform="rotate(-13.49 785.98 392.174)" />
    <path fill="#1ca4d9"
      d="M718.42,343.4l71.38-2.73a114.87,114.87,0,0,1,19.32,91.22l-62.79,29.23c-5.5-18.07-10.79-37.35-15.65-57.77C725.71,382.44,721.68,362.41,718.42,343.4Z" />
    <path fill="#38bef2"
      d="M790.77,340.43c-7.32.61-10.17,26.76-4,51.45,5.32,21.3,16,42,23.33,39.78,10-3.08,4.67-28.83-.75-51.06C804.79,362,795.45,340,790.77,340.43Z" />
    <path fill="#fff8ed" d="M309.39,797V826h78c7.41,0,13.43-6.48,13.43-14.46s-6-14.48-13.43-14.48Z" />
    <path fill="#6234a8"
      d="M398.89,804a15.2,15.2,0,0,1,1.95,7.5c0,.14,0,.29,0,.44s0,.2,0,.3,0,.21,0,.31,0,.28,0,.42,0,.24,0,.37l0,.37c0,.26-.08.53-.13.79A21.2,21.2,0,0,1,393.8,826H309.39v5.71H530.07a6,6,0,0,0,5.71-6.16V797.45a6,6,0,0,0-5.71-6.16H309.39V797h78a12.64,12.64,0,0,1,7,2.1c.19.12.37.24.55.38a14.1,14.1,0,0,1,3.62,3.91C398.67,803.59,398.78,803.79,398.89,804Z" />
    <rect width="5.02" height="40.39" x="417.56" y="791.29" fill="#a573d1" />
    <rect width="5.02" height="40.39" x="433.41" y="791.29" fill="#a573d1" />
    <path fill="#a573d1"
      d="M398.89,804a15.2,15.2,0,0,1,1.95,7.5c0,.15,0,.29,0,.44s0,.2,0,.3,0,.21,0,.31,0,.28,0,.42,0,.25,0,.37l0,.37c0,.27-.09.53-.14.79C399.27,821,393.86,826,387.41,826h-78v5.71h78c10.33,0,18.73-9.06,18.73-20.18v0c0-11-8.28-20-18.48-20.17H309.38V797h78a12.64,12.64,0,0,1,7,2.1c.19.12.37.24.55.38a14.1,14.1,0,0,1,3.62,3.91C398.66,803.59,398.78,803.79,398.89,804Z" />
    <path fill="#f5dac2"
      d="M346.92,802.85h41a1.05,1.05,0,0,0,1-1.09h0a1.05,1.05,0,0,0-1-1.09h-41a1.06,1.06,0,0,0-1,1.09h0A1.06,1.06,0,0,0,346.92,802.85Z" />
    <path fill="#f5dac2"
      d="M317.43,823.49H364a1.05,1.05,0,0,0,1-1.09h0a1.05,1.05,0,0,0-1-1.09H317.43a1.05,1.05,0,0,0-1,1.09h0A1.05,1.05,0,0,0,317.43,823.49Z" />
    <path fill="#f5dac2"
      d="M346.92,813.39h25.56a1.05,1.05,0,0,0,1-1.09h0a1,1,0,0,0-1-1.08H346.92a1,1,0,0,0-1,1.08h0A1.06,1.06,0,0,0,346.92,813.39Z" />
    <path fill="#f5dac2"
      d="M377.5,813.39h10.93a1.05,1.05,0,0,0,1-1.09h0a1,1,0,0,0-1-1.08H377.5a1,1,0,0,0-1,1.08h0A1.05,1.05,0,0,0,377.5,813.39Z" />
    <path fill="#f5dac2"
      d="M321.86,813.39h10.93a1.05,1.05,0,0,0,1-1.09h0a1,1,0,0,0-1-1.08H321.86a1,1,0,0,0-1,1.08h0A1.05,1.05,0,0,0,321.86,813.39Z" />
    <path fill="#f5dac2"
      d="M329.32,803.94h3.47a1.05,1.05,0,0,0,1-1.09h0a1.05,1.05,0,0,0-1-1.09h-3.47a1.05,1.05,0,0,0-1,1.09h0A1.05,1.05,0,0,0,329.32,803.94Z" />
    <path fill="#f5dac2"
      d="M369.32,823.49h3.47a1.05,1.05,0,0,0,1-1.09h0a1.05,1.05,0,0,0-1-1.09h-3.47a1.05,1.05,0,0,0-1,1.09h0A1.05,1.05,0,0,0,369.32,823.49Z" />
    <path fill="#f5dac2"
      d="M312,813.39h3.46a1.05,1.05,0,0,0,1-1.09h0a1,1,0,0,0-1-1.08H312a1,1,0,0,0-1,1.08h0A1.06,1.06,0,0,0,312,813.39Z" />
    <path fill="#fff8ed"
      d="M326.15,790.61c1.1-.44,184.64.85,185.43-.44A25.36,25.36,0,0,0,522.23,779h0V752.48h0a25.27,25.27,0,0,0-11.49-11.6H326.48C330.83,757,329.14,774.37,326.15,790.61Z" />
    <path fill="#ff578d"
      d="M323.33,785.14c-2.16,2.33-.63,7,2.52,6.86h179c8,.07,15.72-4.74,20-12.33,8.1-13.33,2.6-33.62-10.74-39.5a21.42,21.42,0,0,0-9.29-2.13h-179c-4.51-.06-4.69,8.12,0,8.05H504.2a16.14,16.14,0,0,1,6.81,1.52c8.69,3.76,13.24,16.11,8.85,25.55-2.63,6.09-8.25,10.24-14.21,10.72C501.32,785.28,327.05,781.62,323.33,785.14Z" />
    <path fill="#f5dac2"
      d="M414.56,756.29h91.89a1,1,0,0,0,1-1.09h0a1,1,0,0,0-1-1.08H414.56a1,1,0,0,0-1,1.08h0A1,1,0,0,0,414.56,756.29Z" />
    <path fill="#f5dac2"
      d="M350.31,776.93H454.24a1,1,0,0,0,1-1.09h0a1,1,0,0,0-1-1.09H350.31a1,1,0,0,0-1,1.09h0A1,1,0,0,0,350.31,776.93Z" />
    <path fill="#f5dac2"
      d="M414.56,766.83H472.7a1,1,0,0,0,1-1.09h0a1,1,0,0,0-1-1.08H414.56a1,1,0,0,0-1,1.08h0A1,1,0,0,0,414.56,766.83Z" />
    <path fill="#f5dac2"
      d="M481.18,766.83h26.27a1,1,0,0,0,1-1.09h0a1,1,0,0,0-1-1.08H481.18a1,1,0,0,0-1,1.08h0A1,1,0,0,0,481.18,766.83Z" />
    <path fill="#f5dac2"
      d="M360,766.83h26.28a1,1,0,0,0,1-1.09h0a1,1,0,0,0-1-1.08H360a1,1,0,0,0-1,1.08h0A1,1,0,0,0,360,766.83Z" />
    <path fill="#f5dac2"
      d="M376.22,757.38h10a1,1,0,0,0,1-1.09h0a1,1,0,0,0-1-1.09h-10a1,1,0,0,0-1,1.09h0A1,1,0,0,0,376.22,757.38Z" />
    <path fill="#f5dac2"
      d="M463.37,776.93h10a1,1,0,0,0,1-1.09h0a1,1,0,0,0-1-1.09h-10a1,1,0,0,0-1,1.09h0A1,1,0,0,0,463.37,776.93Z" />
    <path fill="#f5dac2"
      d="M338.37,766.83h10a1,1,0,0,0,1-1.09h0a1,1,0,0,0-1-1.08h-10a1,1,0,0,0-1,1.08h0A1,1,0,0,0,338.37,766.83Z" />
    <polygon fill="#ff578d"
      points="396.31 770.56 402.3 766.71 408.3 770.56 408.3 754.12 396.31 754.12 396.31 770.56" />
    <path fill="#422c94"
      d="M1223.05,838.29H113.88a3.26,3.26,0,1,1,0-6.51H1223.05a3.26,3.26,0,1,1,0,6.51Z" />
    <path fill="#422c94"
      d="M893.52,904.43H736.6a3.26,3.26,0,0,1,0-6.52H893.52a3.26,3.26,0,0,1,0,6.52Z" />
    <path fill="#422c94"
      d="M1011.15,904.43H971.9a3.26,3.26,0,0,1,0-6.52h39.25a3.26,3.26,0,0,1,0,6.52Z" />
    <path fill="#422c94"
      d="M295.53,904.43H256.28a3.26,3.26,0,0,1,0-6.52h39.25a3.26,3.26,0,1,1,0,6.52Z" />
    <rect width="328.12" height="439.22" x="833.58" y="395.81" fill="#502da1" rx="17.1" />
    <path fill="#fff"
      d="M845.92,428.71l.34,379.19a10.71,10.71,0,0,0,10.82,10.6l243.17-.22h7.35a11.51,11.51,0,0,0,3.59-.61c15.65-5.3,30.51-17.37,37.31-32.67a10.54,10.54,0,0,0,.9-4.21v-5l-.31-347.35a10.71,10.71,0,0,0-10.82-10.6l-281.55.26A10.71,10.71,0,0,0,845.92,428.71Z" />
    <path fill="#e6e9fa"
      d="M1053.54,530.07l-81.2-.07a1.62,1.62,0,0,1-1.45-1.74h0a1.61,1.61,0,0,1,1.45-1.74l81.21.07a1.62,1.62,0,0,1,1.45,1.74h0A1.62,1.62,0,0,1,1053.54,530.07Z" />
    <path fill="#e6e9fa"
      d="M1053.53,546.39l-81.21-.07a1.62,1.62,0,0,1-1.45-1.74h0a1.61,1.61,0,0,1,1.46-1.74l81.2.07a1.62,1.62,0,0,1,1.45,1.74h0A1.62,1.62,0,0,1,1053.53,546.39Z" />
    <path fill="#e6e9fa"
      d="M1053.51,562.71l-81.2-.07a1.62,1.62,0,0,1-1.45-1.74h0a1.61,1.61,0,0,1,1.45-1.74l81.21.07A1.62,1.62,0,0,1,1055,561h0A1.62,1.62,0,0,1,1053.51,562.71Z" />
    <path fill="#e6e9fa"
      d="M1053.5,579,972.29,579a1.62,1.62,0,0,1-1.45-1.74h0a1.62,1.62,0,0,1,1.46-1.74l81.2.07a1.62,1.62,0,0,1,1.45,1.74h0A1.62,1.62,0,0,1,1053.5,579Z" />
    <path fill="#e6e9fa"
      d="M1129.94,609.35l-243.43-.22a1.61,1.61,0,0,1-1.45-1.74h0a1.62,1.62,0,0,1,1.45-1.74l243.44.22a1.62,1.62,0,0,1,1.45,1.74h0A1.63,1.63,0,0,1,1129.94,609.35Z" />
    <path fill="#e6e9fa"
      d="M1129.93,625.67l-243.44-.22a1.62,1.62,0,0,1-1.45-1.74h0a1.62,1.62,0,0,1,1.45-1.74l243.44.22a1.62,1.62,0,0,1,1.45,1.74h0A1.62,1.62,0,0,1,1129.93,625.67Z" />
    <path fill="#e6e9fa"
      d="M1129.91,642l-243.43-.22A1.61,1.61,0,0,1,885,640h0a1.62,1.62,0,0,1,1.45-1.74l243.44.22a1.62,1.62,0,0,1,1.45,1.74h0A1.62,1.62,0,0,1,1129.91,642Z" />
    <path fill="#e6e9fa"
      d="M1129.9,658.31l-243.44-.22a1.62,1.62,0,0,1-1.45-1.74h0a1.62,1.62,0,0,1,1.45-1.74l243.44.22a1.62,1.62,0,0,1,1.45,1.74h0A1.62,1.62,0,0,1,1129.9,658.31Z" />
    <rect width="75.29" height="55.7" x="885.11" y="524.78" fill="#1bb9e6" />
    <path fill="#fff"
      d="M894.09,565.47l12.67-17.79a1.62,1.62,0,0,1,2.7.07l10.76,16.87a1.62,1.62,0,0,0,2.8-.09l2.43-4.39a1.63,1.63,0,0,1,2.86,0l2.06,3.74a1.62,1.62,0,0,0,3-.21L939,549a1.63,1.63,0,0,1,3.08.08l5.59,16.9a1.68,1.68,0,0,1-1.56,2.22l-50.69,0A1.68,1.68,0,0,1,894.09,565.47Z" />
    <ellipse cx="923.58" cy="541.79" fill="#fff" rx="4.78" ry="4.89" />
    <path fill="#fff"
      d="M908.67,539.67a1.09,1.09,0,0,0-.26,0,1.41,1.41,0,0,0,0-.2,1.9,1.9,0,0,0-3.76-.47,1.11,1.11,0,0,0-.77-.3,1.12,1.12,0,0,0-1,.56,1.59,1.59,0,1,0-.62,3.06,1.51,1.51,0,0,0,1-.34,3.64,3.64,0,0,0,2.33.73,3.77,3.77,0,0,0,2.22-.64,1.33,1.33,0,0,0,.85.3,1.37,1.37,0,0,0,0-2.73Z" />
    <path fill="#fff"
      d="M941.89,539.7a1.09,1.09,0,0,0-.26,0,1.41,1.41,0,0,0,0-.2,1.93,1.93,0,0,0-1.91-1.95,1.9,1.9,0,0,0-1.85,1.48,1.11,1.11,0,0,0-.77-.3,1.12,1.12,0,0,0-1,.56,1.59,1.59,0,1,0-.62,3.06,1.51,1.51,0,0,0,1-.34,3.64,3.64,0,0,0,2.33.73,3.77,3.77,0,0,0,2.22-.64,1.33,1.33,0,0,0,.85.3,1.37,1.37,0,0,0,0-2.73Z" />
    <rect width="55.16" height="24.46" x="1065.45" y="525.2" fill="#ffbd19" />
    <rect width="24.46" height="24.46" x="1065.42" y="555.7" fill="#1bb9e6" />
    <rect width="24.46" height="24.46" x="1096.12" y="555.73" fill="#ff578d" />
    <path fill="#e6e9fa"
      d="M1099.84,818.34h9.82l1.39-.4c17-5,31.78-18,38.34-34.45v-6.88c-7.26,1.92-16.13,0-25.19-2.4-3.47-.91-6.83,1.86-7,5.73-.64,14.81-7.59,29.06-17,38Z" />
    <rect width="88.9" height="46.47" x="884.97" y="673.42" fill="#e6e9fa" />
    <rect width="55.62" height="46.47" x="1002.85" y="673.51" fill="#ffbd19" />
    <rect width="55.62" height="46.47" x="1075.69" y="673.57" fill="#1bb9e6" />
    <path fill="#ffbd19"
      d="M1069.09,394v25.51a8.62,8.62,0,0,1-8.61,8.61H928.34a8.61,8.61,0,0,1-8.61-8.61V394h-4.42v26.33a12.21,12.21,0,0,0,12.21,12.2h133.77a12.2,12.2,0,0,0,12.21-12.2V394Z" />
    <path fill="#ff578d"
      d="M994.41,368.06h0a12.08,12.08,0,0,0-12.08,12.08v21.17h24.16V380.14A12.08,12.08,0,0,0,994.41,368.06Zm0,16.62a5.07,5.07,0,1,1,5.06-5.06A5.06,5.06,0,0,1,994.41,384.68Z" />
    <path fill="#ff578d"
      d="M1073.2,401.31H915.61a6.07,6.07,0,0,1-6.06-6.06h0a6.06,6.06,0,0,1,6.06-6.06H1073.2a6.06,6.06,0,0,1,6.06,6.06h0A6.06,6.06,0,0,1,1073.2,401.31Z" />
    <rect width="43.12" height="8.83" x="974.41" y="425.38" fill="#ff578d" rx="3.46" />
    <path fill="#5645b5"
      d="M894.37,497.45H884.21V481.7a1.88,1.88,0,0,1,.52-1.42,3.87,3.87,0,0,1,1.35-.8,16.39,16.39,0,0,1,3.54-.77,34.21,34.21,0,0,1,3.66-.24q6,0,9.19,2.58a8.49,8.49,0,0,1,3.2,7,8.78,8.78,0,0,1-1.39,5,9.28,9.28,0,0,1-3.93,3.3A14.15,14.15,0,0,1,894.37,497.45Zm-10.16-3.31h7.63v11.47a10.39,10.39,0,0,1-1.48.26,15.35,15.35,0,0,1-2.05.13,4.86,4.86,0,0,1-3.19-.8,3.63,3.63,0,0,1-.91-2.82Zm7.59-2.66h2.09a4.45,4.45,0,0,0,2.9-.9,3,3,0,0,0,1.12-2.55,3.17,3.17,0,0,0-1-2.55,4.4,4.4,0,0,0-3-.9l-1.15,0c-.31,0-.62.06-.94.11Z" />
    <path fill="#5645b5"
      d="M917.06,494.49h-7.64V479.13l1.55-.24a13.85,13.85,0,0,1,2-.15,5.16,5.16,0,0,1,3.14.74,3.48,3.48,0,0,1,1,2.88Zm4.14,11.95a14.08,14.08,0,0,1-6.3-1.31,9.57,9.57,0,0,1-4.06-3.66,10.52,10.52,0,0,1-1.42-5.5v-2.66h7.64v2.53a4.49,4.49,0,0,0,1.16,3.25,4.31,4.31,0,0,0,6,0,4.49,4.49,0,0,0,1.16-3.25v-2.53H933V496a10.52,10.52,0,0,1-1.41,5.5,9.57,9.57,0,0,1-4.06,3.66A14.09,14.09,0,0,1,921.2,506.44ZM933,494.57h-7.63V479.13l1.55-.24a13.61,13.61,0,0,1,2-.15,5.14,5.14,0,0,1,3.14.74,3.48,3.48,0,0,1,1,2.88Z" />
    <path fill="#5645b5"
      d="M949.52,494.88l.22-4.1a20.55,20.55,0,0,1,6.37.83,7.93,7.93,0,0,1,3.81,2.4,5.9,5.9,0,0,1,1.29,3.88,7.06,7.06,0,0,1-3.23,6.37c-2.15,1.4-5.22,2.09-9.2,2.09-.67,0-1.47,0-2.4-.08a28.44,28.44,0,0,1-2.84-.33,14.5,14.5,0,0,1-2.62-.68,3.24,3.24,0,0,1-2.4-3.18V481.7a1.89,1.89,0,0,1,.53-1.42,3.87,3.87,0,0,1,1.35-.8,16.64,16.64,0,0,1,3.73-.77c1.5-.15,3-.24,4.56-.24,3.69,0,6.55.64,8.57,1.9a6.36,6.36,0,0,1,3,5.78A5.26,5.26,0,0,1,959,489.8a8.11,8.11,0,0,1-3.78,2.18,20.65,20.65,0,0,1-5.8.72l-.26-3.14a4.29,4.29,0,0,0,2.72-.7,2.5,2.5,0,0,0,.85-2.05,2.18,2.18,0,0,0-1-1.88,5.1,5.1,0,0,0-2.94-.7c-.44,0-.94,0-1.51,0a11,11,0,0,0-1.33.13V500.2a7.44,7.44,0,0,0,1.59.24c.66.05,1.26.07,1.81.07a5.41,5.41,0,0,0,2.91-.72,2.46,2.46,0,0,0,1.15-2.25,2.21,2.21,0,0,0-1-2.05A5.52,5.52,0,0,0,949.52,494.88Zm2.7-5.32v5.32h-9v-5.32Z" />
    <path fill="#5645b5"
      d="M973.17,496.45h-7.64V479.13l1.55-.24a13.61,13.61,0,0,1,2-.15,5.18,5.18,0,0,1,3.15.74,3.48,3.48,0,0,1,1,2.88Zm-7.64-10.08h7.64v19l-3.58.4a3.76,3.76,0,0,1-4.06-4.06Zm4.06,19.42v-6.16h13.57a5.91,5.91,0,0,1,.56,1.27,5.18,5.18,0,0,1,.27,1.7,3.54,3.54,0,0,1-.7,2.4,2.47,2.47,0,0,1-1.92.79Z" />
    <path fill="#5645b5"
      d="M995.55,496.45h-7.64V479.13l1.55-.24a13.74,13.74,0,0,1,2-.15,5.16,5.16,0,0,1,3.14.74,3.48,3.48,0,0,1,1,2.88Zm-7.64-10.08h7.64v19.24a10.59,10.59,0,0,1-1.49.26,15.35,15.35,0,0,1-2,.13,4.83,4.83,0,0,1-3.18-.8,3.63,3.63,0,0,1-.92-2.82Z" />
    <path fill="#5645b5"
      d="M1009.33,500.25a4.94,4.94,0,0,0,3-.7,2,2,0,0,0,.88-1.57,1.64,1.64,0,0,0-.7-1.38,8.26,8.26,0,0,0-2-.94l-1.83-.61a36.43,36.43,0,0,1-4.47-1.85,8.06,8.06,0,0,1-3-2.55,7,7,0,0,1-1.09-4.1,7.16,7.16,0,0,1,2.85-5.94q2.87-2.22,8-2.22a18.9,18.9,0,0,1,4.49.48,7.22,7.22,0,0,1,3.1,1.46,3.16,3.16,0,0,1,1.14,2.51,3.55,3.55,0,0,1-.53,1.92,5.26,5.26,0,0,1-1.26,1.39,10.28,10.28,0,0,0-2.58-1.07,13.07,13.07,0,0,0-3.53-.45,5.87,5.87,0,0,0-2.88.54,1.6,1.6,0,0,0-.92,1.38,1.25,1.25,0,0,0,.59,1.06,6.33,6.33,0,0,0,1.68.77l2.32.74a16.1,16.1,0,0,1,6.32,3.38,7.29,7.29,0,0,1,2.18,5.56,7.37,7.37,0,0,1-2.94,6.05c-2,1.55-4.82,2.33-8.58,2.33a18.56,18.56,0,0,1-4.79-.57,8,8,0,0,1-3.41-1.7,3.55,3.55,0,0,1-1.26-2.75,3.26,3.26,0,0,1,.74-2.16,5.69,5.69,0,0,1,1.61-1.37,12.09,12.09,0,0,0,3,1.66A10.55,10.55,0,0,0,1009.33,500.25Z" />
    <path fill="#5645b5"
      d="M1032.89,496.45h-7.63V479.13l1.55-.24a13.61,13.61,0,0,1,2-.15,5.14,5.14,0,0,1,3.14.74,3.48,3.48,0,0,1,1,2.88Zm-7.63-10.08h7.63v19.24a10.39,10.39,0,0,1-1.48.26,15.35,15.35,0,0,1-2.05.13,4.86,4.86,0,0,1-3.19-.8,3.63,3.63,0,0,1-.91-2.82Zm20.42,9.08h-17.15v-6h17.15Zm3.22,1h-7.63V479.13l1.55-.24a13.61,13.61,0,0,1,2-.15,5,5,0,0,1,3.14.78,3.64,3.64,0,0,1,1,2.92Zm-7.63-10.08h7.63v19.24a10.39,10.39,0,0,1-1.48.26,15.35,15.35,0,0,1-2.05.13,4.83,4.83,0,0,1-3.18-.8,3.59,3.59,0,0,1-.92-2.82Z" />
    <path fill="#5645b5"
      d="M1062.21,496.45h-7.63V479.13l1.54-.24a13.85,13.85,0,0,1,2-.15,5.16,5.16,0,0,1,3.14.74,3.48,3.48,0,0,1,1,2.88Zm-7.63-10.08h7.63v19.24a10.39,10.39,0,0,1-1.48.26,15.46,15.46,0,0,1-2,.13,4.84,4.84,0,0,1-3.19-.8,3.63,3.63,0,0,1-.91-2.82Z" />
    <path fill="#5645b5"
      d="M1091.83,494.14v10.6a4.46,4.46,0,0,1-1.76.92,9.8,9.8,0,0,1-2.77.34,9.61,9.61,0,0,1-3.06-.48,4.22,4.22,0,0,1-2.35-2.31l-4.32-8.81-.81-1.72q-.37-.81-.72-1.68t-.78-1.92l-7.38,1.61V480.57a3.65,3.65,0,0,1,1.88-1.31,8.22,8.22,0,0,1,2.7-.44,9.3,9.3,0,0,1,3.08.51,4.13,4.13,0,0,1,2.33,2.29l4.37,8.81c.29.58.56,1.15.8,1.7s.5,1.12.74,1.7.51,1.22.77,1.92Zm-23.95-5.94h7q.16,2,.24,3.84c0,1.22.06,2.38.06,3.47v10.15c-.29,0-.76.13-1.42.21a14.42,14.42,0,0,1-2,.13,4.7,4.7,0,0,1-3.06-.76,3.52,3.52,0,0,1-.87-2.73Zm23.95,8.29h-7c-.17-2-.27-3.91-.28-5.63s0-3.34,0-4.88v-6.89c.32-.06.8-.14,1.44-.22a14.17,14.17,0,0,1,2-.13,4.67,4.67,0,0,1,3,.76,3.52,3.52,0,0,1,.87,2.73Z" />
    <path fill="#5645b5"
      d="M1121.46,492.44v9a3.4,3.4,0,0,1-.48,2,5,5,0,0,1-1.53,1.27,13.42,13.42,0,0,1-3.56,1.22,21,21,0,0,1-4.64.52,19.44,19.44,0,0,1-7.61-1.44,11.73,11.73,0,0,1-5.44-4.54,14.48,14.48,0,0,1-2-8,13.87,13.87,0,0,1,2-7.72,12.91,12.91,0,0,1,5.45-4.76,17.8,17.8,0,0,1,7.66-1.61,16.9,16.9,0,0,1,4.77.59,7.19,7.19,0,0,1,3.12,1.65,3.4,3.4,0,0,1,1.09,2.51,3.45,3.45,0,0,1-.56,1.94,4.66,4.66,0,0,1-1.31,1.34,16.7,16.7,0,0,0-2.75-1.27,10.9,10.9,0,0,0-3.8-.61,8.43,8.43,0,0,0-4.1,1,7,7,0,0,0-2.77,2.75,8.51,8.51,0,0,0-1,4.17,9.21,9.21,0,0,0,.94,4.38,6.12,6.12,0,0,0,2.59,2.64,8.06,8.06,0,0,0,3.8.87,6.48,6.48,0,0,0,1.68-.19,8.86,8.86,0,0,0,1.11-.37v-4.19h-4.67a7.14,7.14,0,0,1-.5-1.27,5.6,5.6,0,0,1-.24-1.66,3,3,0,0,1,.72-2.26,2.54,2.54,0,0,1,1.86-.7h7.37a2.5,2.5,0,0,1,2.75,2.75Z" />
    <path fill="#220e47"
      d="M369.55,233s6.85-3.75,3.16-12.39c-2.69-6.27-12.29-7.9-18-1.84-19.49-5.47-18,61.66-15.82,66.15,6.92,14.55,33.7,3.31,30.87-3.2C375.1,267.92,369.55,233,369.55,233Z" />
    <path fill="#ffc4ad" d="M355.17,259.56l10.37-.72-.4-9.63-.2-3.51-10.47-3,.17,4.53Z" />
    <path fill="#eb8571"
      d="M359,249.44c1.83,2,4.67,3.48,6.16-.23l-.2-3.51-9.67-1.93A39.69,39.69,0,0,0,359,249.44Z" />
    <path fill="#ffc4ad"
      d="M352.19,239.35c1.64,4.7,7.77,10,11.55,9.37,2.1-.35,5.16-4.44,5.49-5.32a13.6,13.6,0,0,0,.88-4.1c.38-7.05.72-13.41-3.63-16.36A10.87,10.87,0,0,0,353.85,224C348.55,229,351.7,238,352.19,239.35Z" />
    <path fill="#ffc4ad"
      d="M352.36,236s-1.79-1.53-2.48-.3.19,6.2,3.7,6.05C353.58,241.75,352.74,236,352.36,236Z" />
    <polygon fill="#ffc4ad"
      points="384.42 442.52 356.42 435.26 349.82 463.27 377.82 470.53 384.42 442.52" />
    <path fill="#ffc4ad" d="M458.16,434.05,431.47,445,443,471.35c10.83-1.11,20.32-4,26.69-10.91Z" />
    <path fill="#ff578d"
      d="M466.62,453.27c1.59,0,24.94-.34,35.75,17.15a34.24,34.24,0,0,1,4.93,16.76l-76.9,0h0L436,454.68S454.86,466.92,466.62,453.27Z" />
    <rect width="82.78" height="9.05" x="427.66" y="487.18" fill="#fff" rx="3.88"
      transform="rotate(-180 469.045 491.705)" />
    <path fill="#fff"
      d="M486.11,472.73a1.27,1.27,0,0,1-.38-.07,1.12,1.12,0,0,1-.68-1.43c3.53-10,8-11,8.46-11.12a1.12,1.12,0,0,1,1.3.9,1.13,1.13,0,0,1-.88,1.3c-.12,0-3.72,1.05-6.77,9.67A1.11,1.11,0,0,1,486.11,472.73Z" />
    <path fill="#fff"
      d="M477.09,468.13a1,1,0,0,1-.37-.07,1.11,1.11,0,0,1-.68-1.43c3.52-10,8-11,8.45-11.12a1.12,1.12,0,0,1,.42,2.2c-.12,0-3.71,1.05-6.76,9.67A1.13,1.13,0,0,1,477.09,468.13Z" />
    <path fill="#ff578d"
      d="M381.07,453.27c1.59,0,24.94-.34,35.75,17.15a34.24,34.24,0,0,1,4.93,16.76l-76.91,0h0l5.65-32.46S369.31,466.92,381.07,453.27Z" />
    <rect width="82.78" height="9.05" x="342.11" y="487.18" fill="#fff" rx="3.88"
      transform="rotate(-180 383.495 491.705)" />
    <path fill="#fff"
      d="M400.56,472.73a1.27,1.27,0,0,1-.38-.07,1.12,1.12,0,0,1-.68-1.43c3.53-10,8-11,8.45-11.12a1.12,1.12,0,0,1,1.31.9,1.13,1.13,0,0,1-.88,1.3c-.12,0-3.72,1.05-6.77,9.67A1.11,1.11,0,0,1,400.56,472.73Z" />
    <path fill="#fff"
      d="M391.54,468.13a1,1,0,0,1-.37-.07,1.11,1.11,0,0,1-.68-1.43c3.52-10,8-11,8.45-11.12a1.12,1.12,0,0,1,.42,2.2c-.12,0-3.71,1.05-6.76,9.67A1.14,1.14,0,0,1,391.54,468.13Z" />
    <path fill="#ffbd19"
      d="M437.46,455.89l23.06-8.83c7.28-2.86,8.23-10.59,3.16-21.94-18.92-43.66-42.56-84.2-64.34-117.32-15.09-22.94-25.78,11.55-25.78,11.55l49.38,130.24C426.54,455.24,432.53,457.84,437.46,455.89Z" />
    <path fill="#ffbd19"
      d="M379.7,448.59c-11.39-1.13-32,1.52-31.4-14.54,1.14-15.47,8.2-53.4,7.52-63.6-8.95-2.9-21.56-4.57-25.84-13.29-4.81-9.81-.66-27,.33-35.91l45.9,2.72v-.14a30.49,30.49,0,0,0,.39,6.26c5.26.31-3.56,5.06,1.48,7,12,4.7,23.08,15,23.68,31.52.77,16.7-6.41,50.72-7.57,68.08C393.77,443.74,387.25,449.07,379.7,448.59Z" />
    <path fill="#ff578d"
      d="M390.11,296.78A139,139,0,0,1,387.36,326a53.82,53.82,0,0,1-19.9,4.35c-11.61.26-22.68-3.36-34.54-8.36l-1.73-31.82L329.55,260h0v-.32c1.7-2.59,9.46-4.45,15.63-5.55a55.15,55.15,0,0,1,12.2-1.35,80.94,80.94,0,0,1,15.72,1.78c.33,0,10.2,2.87,12.16,5.58C393.63,271.66,390.13,284.57,390.11,296.78Z" />
    <polygon fill="#fff"
      points="354.88 252.74 365.27 253.21 368.81 330.91 352.79 330.91 354.88 252.74" />
    <path fill="#ff578d"
      d="M393.38,264.5c6.92,7.23,20.87,41.8,20.87,41.8l-27.17,8-14-59.81C377.68,255.62,387.08,257.93,393.38,264.5Z" />
    <path fill="#e02d67"
      d="M365.21,334.35c-11.61.26-20.43-7.32-32.29-12.32l-1.73-31.82,16.82.67s-11.3,9.87-7.66,18.23C349.31,329.68,365.21,334.35,365.21,334.35Z" />
    <path fill="#ffc4ad"
      d="M365.27,253.21s-.92,5.65-4.52,5.57c-3.42-.07-5.66-2.58-5.87-6C359.55,251.69,362.18,251.12,365.27,253.21Z" />
    <path fill="#db995d"
      d="M378.09,338.32H333.82a1.61,1.61,0,0,0-1.62,1.61l.07,1.83a1.62,1.62,0,0,0,1.61,1.62h44.28Z" />
    <path fill="#6737bd"
      d="M441,292.3a4.2,4.2,0,0,0-2.69-1H373.7a4.19,4.19,0,0,0-4.13,3.48L362,338.32h70.25L442,295.44A3.16,3.16,0,0,0,441,292.3Z" />
    <path fill="#502b94"
      d="M440.53,293.55H372.87a1.65,1.65,0,0,0-1.63,1.37l-7.74,46.54a1.65,1.65,0,0,0,1.63,1.92H430a5,5,0,0,0,4.92-4.18l7.28-43.74A1.65,1.65,0,0,0,440.53,293.55Z" />
    <path fill="#ffc4ad"
      d="M370.43,334.3a37.22,37.22,0,0,0-10.75-4.45c-2.46-.61-8.69-1.18-13.75,1.63L341,345.2c-.55,1.51,2.89,6.83,4.53,7.86,5.24,3.28,13.14,5,14.58,5.56,3.41,1.37,6.27-3.39,3.53-5.76,3.35,1.38,6.26-3.19,3.69-5.64,3.72,1,5.95-4.44,2.59-6.3C373.24,340.41,373.69,335.36,370.43,334.3Z" />
    <path fill="#eb8571"
      d="M358.35,337.37h0l11.39,3.83a.28.28,0,0,0,.36-.18.3.3,0,0,0-.18-.37l-11.38-3.82a.29.29,0,0,0-.37.18A.28.28,0,0,0,358.35,337.37Z" />
    <path fill="#eb8571"
      d="M356.13,343.45l11.09,4a.29.29,0,0,0,.37-.17.29.29,0,0,0-.17-.37l-11.09-4a.29.29,0,0,0-.2.54Z" />
    <path fill="#eb8571"
      d="M353.89,349.62l9.68,3.53a.29.29,0,0,0,.37-.17.3.3,0,0,0-.17-.37l-9.69-3.53a.29.29,0,1,0-.19.54Z" />
    <path fill="#ffc4ad"
      d="M331.9,305.36a1,1,0,0,0,0,.17l-24.1-21.83c-5.17,8.34-7.52,18.14-5.15,28.45,4.53,20.83,25.79,33,43.94,38.84L355,330.25C342.56,324.51,330.05,313.7,331.9,305.36Z" />
    <path fill="#ebcfb7"
      d="M386.94,343.38c7.58,3.93,15.56,10.78,17.52,17.91,3,10.86-2.66,23.28-2.85,34.15C400,377.67,404.51,354.53,386.94,343.38Z"
      style="mix-blend-mode:multiply" />
    <path fill="#220e47"
      d="M360.58,233.39c-1-.45-3.67-.17-4.15,1.66a3.78,3.78,0,0,1,3.64-.55C360.67,234.75,360.81,233.49,360.58,233.39Z" />
    <path fill="#220e47"
      d="M365.63,233.19c1-.45,3.68-.18,4.17,1.65a3.78,3.78,0,0,0-3.65-.55C365.55,234.54,365.41,233.29,365.63,233.19Z" />
    <circle cx="367.88" cy="236.46" r="1.1" fill="#180a33" />
    <path fill="#180a33" d="M367.92,235.36c.83,0,.95.77,1.81.73A1.15,1.15,0,0,1,367.92,235.36Z" />
    <circle cx="368.26" cy="236.26" r=".26" fill="#fff" />
    <circle cx="358.94" cy="236.8" r="1.1" fill="#180a33" />
    <path fill="#180a33" d="M358.9,235.7c-.83,0-1,.77-1.82.73A1.17,1.17,0,0,0,358.9,235.7Z" />
    <circle cx="358.56" cy="236.59" r=".26" fill="#fff" />
    <path fill="#eb8571"
      d="M365.47,239.45c-.34-1.27-1.64-2.21-1.4-3.63.06-.36-.5-.39-.56,0-.2,1.22.59,2.2,1.15,3.19.24.42.51,1,.11,1.44a1.91,1.91,0,0,1-1.55.26c-.36,0-.39.52,0,.56A2.55,2.55,0,0,0,365,241,1.32,1.32,0,0,0,365.47,239.45Z" />
    <path fill="#eb8571"
      d="M365,243.27a4.47,4.47,0,0,1-2.18.1,1.79,1.79,0,0,1-1.33-.9.36.36,0,0,0-.62.35,2.47,2.47,0,0,0,1.71,1.23,5.25,5.25,0,0,0,2.61-.1A.35.35,0,0,0,365,243.27Z" />
    <path fill="#ff578d"
      d="M347.89,290.21l-17.53-31.43s-27.94,19.93-28.68,48.76,26,37.66,26,37.66l15.71-23s-8.72-10.56-9.52-16.66C332.37,294,347.89,290.21,347.89,290.21Z" />
    <path fill="#220e47"
      d="M368.74,223.46c2,1.65,2.42,9.64,1.58,11.18,0,0-.55-1.76-1.15-2a3,3,0,0,1-1.6-1.8l-.46,1.13-2.93.25-.68-2s0,1.89-.25,2-6.2.3-6.24,0-.38-1.51-.38-1.51l-1,2c-3.36.35-4.07,4.55-4.07,4.55-.77-.56-3.23-10.73,3.28-14.56C359,220.39,364.9,220.29,368.74,223.46Z" />
    <path fill="#ffc4ad"
      d="M219.21,793.85l-4.88-61.72-18.26,3.06s-5.58,55.35-5.09,56.37,3,12.93,3,12.93l19-1.14Z" />
    <path fill="#ff578d"
      d="M191.65,792.57c-1.45,0-22.63-.31-32.44,15.55a31.18,31.18,0,0,0-4.47,15.21l69.77,0h0l-5.12-29.45S202.32,805,191.65,792.57Z" />
    <rect width="75.1" height="8.21" x="151.9" y="823.33" fill="#fff" rx="3.52" />
    <path fill="#fff"
      d="M174,810.22a1,1,0,0,0,1-1.36c-3.2-9-7.22-10-7.67-10.09a1,1,0,0,0-.38,2c.1,0,3.37,1,6.13,8.77A1,1,0,0,0,174,810.22Z" />
    <path fill="#fff"
      d="M182.15,806.05a1.06,1.06,0,0,0,.34-.06,1,1,0,0,0,.61-1.3c-3.19-9-7.22-10-7.67-10.09a1,1,0,0,0-.38,2c.11,0,3.37,1,6.14,8.78A1,1,0,0,0,182.15,806.05Z" />
    <path fill="#ffb300"
      d="M220.78,789.84c-9.3.44-21.47-1.69-28.43-3.33-8.85-2.1-9.83-10.09-8.34-20.39,12.22-84.59,21.23-141.81,34.67-187.07h24.7s-4.29,144-11.09,199.47C231.43,785.56,226.53,789.57,220.78,789.84Z" />
    <polygon fill="#ebcfb7"
      points="237.62 623.53 241.53 654.61 237.62 705.93 233.07 662.29 237.62 623.53"
      style="mix-blend-mode:multiply" />
    <path fill="#2e1552"
      d="M253.67,478.77l-.77,2.45a8.46,8.46,0,0,1,4,2.13,12.18,12.18,0,0,1,3.7,7.95c.32,4.51-1.41,8.92-3.43,13s-4.41,8-5.53,12.37A23.18,23.18,0,0,0,266,544.16c3.75,1.38,8,1.76,11.69.22,3.94-1.65,6.72-5.23,8.91-8.88,1.83-3.06,3.4-6.91,1.75-10.07-1.19-2.28-3.71-3.48-6-4.69a28.07,28.07,0,0,1-9-7A14.52,14.52,0,0,1,270,503.11c.3-2.31,1.28-4.48,1.61-6.78.73-5.1-1.89-10.22-5.64-13.75a15.16,15.16,0,0,0-9-3.71A23.45,23.45,0,0,0,253.67,478.77Z" />
    <path fill="#fb0"
      d="M253.67,478.77l-.77,2.45a8.46,8.46,0,0,1,4,2.13,7.82,7.82,0,0,0,.17-4.48A23.45,23.45,0,0,0,253.67,478.77Z" />
    <path fill="#ffc4ad"
      d="M291.14,793.85l-4.88-61.72L268,735.19s-5.58,55.35-5.09,56.37,3,12.93,3,12.93l19-1.14Z" />
    <path fill="#ff578d"
      d="M263.58,792.57c-1.44,0-22.63-.31-32.43,15.55a31.21,31.21,0,0,0-4.48,15.21l69.77,0h0l-5.12-29.45S274.25,805,263.58,792.57Z" />
    <rect width="75.1" height="8.21" x="223.83" y="823.33" fill="#fff" rx="3.52" />
    <path fill="#fff"
      d="M245.9,810.22a1,1,0,0,0,1-1.36c-3.2-9-7.22-10-7.67-10.09a1,1,0,0,0-.38,2c.1,0,3.37,1,6.13,8.77A1,1,0,0,0,245.9,810.22Z" />
    <path fill="#fff"
      d="M254.08,806.05a1,1,0,0,0,1-1.36c-3.2-9-7.23-10-7.67-10.09a1,1,0,0,0-1.18.82,1,1,0,0,0,.79,1.17c.11,0,3.38,1,6.14,8.78A1,1,0,0,0,254.08,806.05Z" />
    <path fill="#ffc4ad"
      d="M280.69,573.35,302,545.1c18.21,22.83,20.84,51-8.24,75.84L276.53,603.6c4.78-6,10.13-14,8.69-21.65A23.5,23.5,0,0,0,280.69,573.35Z" />
    <path fill="#ffc4ad"
      d="M263.16,596.15c2-2.33,16.51,3.47,16.51,3.47l-10.84,3.51S261.17,598.48,263.16,596.15Z" />
    <path fill="#ffc4ad"
      d="M161.57,515c.11,0,.21.56.38,1.15,1.12,19,11.55,20.62,22.14,17.34l-1.55,34.1c-6.17-.78-15.36-1.76-21.47-4.59-18.54-8.58-21.5-27.27-15.87-50Z" />
    <path fill="#f5b7ad" d="M162.52,519.73s-13.08,1.65-16.06.16c-4.17-2.09-2.73-8.41-2.73-8.41Z"
      style="mix-blend-mode:multiply" />
    <path fill="#6234a8"
      d="M247.19,537.57c-2.74,9.15-15.31,17.86-29.49,23.79a108.39,108.39,0,0,1-20.09,6.22,58.44,58.44,0,0,1-15.52,1.3c-1.56-12.78-2.7-23.85-2-36,4.49-3.56,16.76-8.95,31.3-14.16,0,0,6.13-.69,8.79.7Z" />
    <path fill="#471f85"
      d="M217.7,561.36a108.39,108.39,0,0,1-20.09,6.22c3.06-1.88,10.75-7,9.93-11-1.72-8.3,3.39-25.52,4-27Z" />
    <path fill="#ffb300"
      d="M257.73,576.94l-26.33,2.69,18.1,195.25c1.49,7.36,5,10.9,12.82,12.57,6.75,1.44,18.88-.45,27.73-2.66,7.4-1.85,9.95-9.36,8.33-18.71C289.4,714.11,276.33,599.77,257.73,576.94Z" />
    <path fill="#6234a8"
      d="M274.17,521.75l-5.48,36.38-4.62,30.67c-3.41.45-6.49.82-9.29,1.1-17.88,1.86-24.85.73-38.34-2.12-4.4-18.72-8.59-41.91-5-69C216.5,516.75,246.36,508.06,274.17,521.75Z" />
    <path fill="#471f85"
      d="M268.69,558.13l-4.62,30.67c-3.41.45-6.49.82-9.29,1.1,3.34-6.18,9-16.62,9-21.36,0-6.94-8.24-11.91-8.24-11.91Z" />
    <path fill="#ffc4ad"
      d="M153.44,507.52a3.37,3.37,0,0,0,.55,0,3.63,3.63,0,0,0,3.45-3.79c-.35-7.23-1.21-15-5.13-23.05a3.62,3.62,0,1,0-6.51,3.18c3.16,6.47,4,12.76,4.4,20.21A3.63,3.63,0,0,0,153.44,507.52Z" />
    <path fill="#ff82aa"
      d="M148.21,484.66s7.92.4,4.32,10.51a1.35,1.35,0,0,0-.1.79c.36,1.55,1.21,7.12-4,10.43a1.2,1.2,0,0,0-.21,1.88c1.92,1.82,6.85,3.73,10.7,1.08,7.39-5.1-3.73-31.6-3.73-31.6Z" />
    <path fill="#ff578d"
      d="M151.81,506.39c4.86-3.18,3.17-9.13,2.52-10.93a1.18,1.18,0,0,1,.09-1c3.61-6.29-3.52-16.05-3.52-16.05l9.79-.06c6.75,9.41,2.05,25.16-.6,29.71-1.81,3.1-5.8,1.65-8.18.4A1.2,1.2,0,0,1,151.81,506.39Z" />
    <path fill="#ff578d"
      d="M105,434.5s14.64,18.07,38.91,21.6,31-1.93,30.47,9.37c-.13,2.66-1.22,13.08-1.65,15.71C171,492.34,165.49,485.61,141,484s-42.56,13-42.56,13Z" />
    <path fill="#ff82aa"
      d="M94.91,497.67a4.06,4.06,0,0,0,1.21.34c5.37.56,9.57-10.7,11.71-21.44.64-3.2,1.15-6.56,1.51-10,.38-3.64.59-7.22.61-10.65,0-4.62-.28-19.92-5.8-22.51a3.66,3.66,0,0,0-1.2-.34c-2.93-.31-5.8,2.9-8.3,9.28a88.53,88.53,0,0,0-4.93,22.16C88.19,479.05,89.49,495.11,94.91,497.67Z" />
    <path fill="#ff578d"
      d="M90.93,464.63c-1.82,17.27.56,31.67,5.31,32.17,3.8.4,8-8.19,10.41-20.46.62-3.1,1.12-6.42,1.49-9.9.39-3.68.58-7.23.61-10.54.08-12.24-2.19-21.25-5.93-21.64C98.07,433.76,92.74,447.36,90.93,464.63Z" />
    <path fill="#ffd217"
      d="M145.45,486.42,165,488.76c3.87.41,7.38-2.81,7.84-7.18l1.79-17c.46-4.37-2.3-8.25-6.17-8.65l-19.75-1.3C151.81,466,150.84,475.92,145.45,486.42Z" />
    <path fill="#ffd217"
      d="M174.61,464.79a2.11,2.11,0,0,1,1.88,2.33l-1.3,12.37a2.12,2.12,0,0,1-4.21-.44l1.3-12.38A2.12,2.12,0,0,1,174.61,464.79Z" />
    <path fill="#ff578d"
      d="M170.23,462.29l-8.24-.87a.81.81,0,0,1-.75-.82.79.79,0,0,1,.86-.74l8.24.87a.81.81,0,0,1,.75.83A.78.78,0,0,1,170.23,462.29Z" />
    <path fill="#ff578d"
      d="M161.89,461.88l8.24.87a.8.8,0,0,1,.75.82.78.78,0,0,1-.86.73l-8.24-.86a.81.81,0,0,1-.75-.83A.78.78,0,0,1,161.89,461.88Z" />
    <path fill="#ff578d"
      d="M161.68,463.89l8.24.87a.82.82,0,0,1,.75.83.78.78,0,0,1-.86.73l-8.24-.87a.8.8,0,0,1-.75-.83A.78.78,0,0,1,161.68,463.89Z" />
    <path fill="#f9ad19"
      d="M145.33,484.35h.12c.27-.09,1.2-.78,2.31-3.42a40.3,40.3,0,0,0,2.15-20.44c-.54-2.81-1.3-3.68-1.54-3.83h-.12l-2.47-.3c.79-1.16,1.7-1.85,2.74-1.74s1.88,1.08,2.44,2.33a14.94,14.94,0,0,1,.94,3.16,42.45,42.45,0,0,1-2.28,21.64,15.29,15.29,0,0,1-1.57,2.9c-.81,1.1-1.78,1.88-2.88,1.77s-1.78-1-2.31-2.27c.85.06,1.67.14,2.47.21Z" />
    <path fill="#f9ad19"
      d="M98.69,458.89l-1.47,14,.18,0c1,.17,6.27,1.07,9.38,2.69.56-2.9,1-6,1.36-9.21.3-2.85.48-5.61.56-8.25-3.37,1-8.75.76-9.82.71Z" />
    <ellipse cx="97.95" cy="465.91" fill="#fff" rx="7.06" ry="1.53"
      transform="rotate(-84 97.924 465.89)" />
    <path fill="#ffc4ad"
      d="M149,497.81l16.82,1.77a3.62,3.62,0,1,0,.76-7.2l-16.82-1.77a3.62,3.62,0,1,0-.76,7.2Z" />
    <path fill="#ffc4ad"
      d="M149.45,504.55l16.81,1.77a3.62,3.62,0,1,0,.76-7.21l-16.82-1.77a3.62,3.62,0,0,0-.75,7.21Z" />
    <path fill="#ffc4ad"
      d="M147.56,511.22,164.38,513a3.62,3.62,0,0,0,.76-7.2L148.32,504a3.62,3.62,0,1,0-.76,7.2Z" />
    <path fill="#ffc4ad"
      d="M162.2,519.76a3.62,3.62,0,0,0,.82-7.2l-13.9-1.72a3.62,3.62,0,1,0-.89,7.19l13.91,1.72Z" />
    <path fill="#ffc4ad"
      d="M154.61,491.12l-5.79-.61c-2-.21-4.68.79-5.26,2.38-2.82,7.78-2.76,13.37-1.56,21.19a4.73,4.73,0,0,0,3.95,3.71l5.79.61Z" />
    <path fill="#f5b7ad"
      d="M155,498.57h0l12.56,1a.3.3,0,0,0,.32-.28.31.31,0,0,0-.27-.33l-12.56-1a.31.31,0,0,0-.33.28A.31.31,0,0,0,155,498.57Z" />
    <path fill="#f5b7ad"
      d="M154.31,505.32l12.31,1.3a.31.31,0,0,0,.34-.27.3.3,0,0,0-.27-.33l-12.31-1.3a.3.3,0,0,0-.07.6Z" />
    <path fill="#f5b7ad"
      d="M153.59,512.17l10.75,1.13a.3.3,0,0,0,.34-.26.32.32,0,0,0-.27-.34l-10.75-1.13a.32.32,0,0,0-.34.27A.3.3,0,0,0,153.59,512.17Z" />
    <path fill="#ffc4ad"
      d="M261,628a3,3,0,0,0,1.8-.88l9.46-9A3,3,0,0,0,268,614l-9.46,9A3,3,0,0,0,261,628Z" />
    <path fill="#ffc4ad"
      d="M266.43,601.49c3.12-1.76,14-2.68,16.51-1.67l10.81,21.12c-12.48,5.94-17.18.17-26.14,1.18C262.61,622.69,266.43,601.49,266.43,601.49Z" />
    <path fill="#ffc4ad"
      d="M256,623.63a3,3,0,0,0,1.65-.72L269,614.23a3,3,0,1,0-3.95-4.5l-11.35,8.67a3,3,0,0,0-.28,4.23A3,3,0,0,0,256,623.63Z" />
    <path fill="#ffc4ad"
      d="M251.11,620.78a3,3,0,0,0,1.62-.71l13-9.82a3,3,0,1,0-3.91-4.55l-13,9.83a3,3,0,0,0,2.28,5.25Z" />
    <path fill="#ffc4ad"
      d="M249.07,615.3c.61,0,1.12-.13,6.29-3.14,8.76-5.12,11.48-4.92,11.84-4.86,3.12,2.16,6.54-2.73,3.42-4.92s-8.24-.45-17.53,4.17c-4.05,2-5.62,2.84-5.83,3C244.66,611.07,246.3,615.33,249.07,615.3Z" />
    <path fill="#f5b7ad"
      d="M262.07,619.94a.26.26,0,0,0,.11-.1l4.65-3.46a.24.24,0,0,0-.08-.34.25.25,0,0,0-.35.08l-4.64,3.46a.24.24,0,0,0,.08.34A.24.24,0,0,0,262.07,619.94Z" />
    <path fill="#f5b7ad"
      d="M252.53,620.38a.26.26,0,0,0,.15-.07c4.64-4.42,6.36-4.93,11.64-8.53a.24.24,0,0,0,.07-.34.25.25,0,0,0-.35-.07c-5.31,3.61-7.06,4.15-11.71,8.58a.25.25,0,0,0,0,.35A.26.26,0,0,0,252.53,620.38Z" />
    <path fill="#f5b7ad"
      d="M248.9,615.56a.2.2,0,0,0,.14-.06c.16-.14,11.72-9.06,15.33-9.27a.25.25,0,0,0,.23-.26.26.26,0,0,0-.27-.24c-3.78.26-15,8.82-15.62,9.4a.24.24,0,0,0,0,.35A.24.24,0,0,0,248.9,615.56Z" />
    <path fill="#220e47"
      d="M254.82,481.29c-2.42-7.2-9.17-7.89-13.31-7.09-6.46-4.25-18.83,2.37-13,18.34a59.14,59.14,0,0,1,3,10.13l7.07-.22C248.71,504.71,259.91,496.44,254.82,481.29Z" />
    <path fill="#ffc4ad"
      d="M232.81,514.28c.23-.23,1.76-1.92,2.34-6.29h0c0-.25.06-.49.08-.73v0c0-.08,0-.17,0-.25a31.66,31.66,0,0,0,0-5.43l0-.39a.81.81,0,0,1,0-.16h9.2v.08c0,.16,0,.32,0,.47s0,.13,0,.2,0,.11,0,.17c0,.23,0,.46-.05.67s0,.16,0,.24c0,.71-.06,1.35-.06,1.93v0c0,1.27.08,2.31.16,3.47h0a14.79,14.79,0,0,0,1.65,6h0c-3.62,10.43-17.65,10-13.25,0Z" />
    <path fill="#f5b7ad"
      d="M234.61,510.67c7.54-.26,9.49-6.25,9.8-9.68h-9.2A23,23,0,0,1,234.61,510.67Z"
      style="mix-blend-mode:multiply" />
    <path fill="#ffc4ad"
      d="M244.71,482.08c-4.21-4.28-12.36-2.86-15.15,4.95-2.3,6.47-2.87,18.23,4.33,20.71C241.56,510.38,258.34,496,244.71,482.08Z" />
    <path fill="#ffc4ad"
      d="M246.08,499.08c.33-1.53,1-3.62,2.43-4.24,1.7-.73,4.32.21,3.47,3.35-1.62,6-7,3.8-7,3.8Z" />
    <path fill="#6234a8"
      d="M254.84,556.44c.85-1.6,17.91-32,19.33-34.69,10.62,6.45,22.45,14.06,30.21,23.77-5.65,10.61-14.27,21.44-24.31,28.71C279.71,573.78,263.7,560.44,254.84,556.44Z" />
    <path fill="#220e47"
      d="M239.13,491.33c1.18-.25,3.86.6,4,2.61a4,4,0,0,0-3.67-1.36C238.75,492.71,238.87,491.38,239.13,491.33Z" />
    <path fill="#220e47"
      d="M233.87,490.38c-1-.7-3.77-1-4.69.75a4,4,0,0,1,3.9.28C233.65,491.81,234.09,490.54,233.87,490.38Z" />
    <circle cx="231.63" cy="493.67" r="1.17" fill="#180a33" />
    <path fill="#180a33" d="M231.83,492.52c-.88-.14-1.16.59-2.05.37A1.23,1.23,0,0,0,231.83,492.52Z" />
    <circle cx="231.28" cy="493.38" r=".27" fill="#fff" />
    <circle cx="239.98" cy="495.44" r="1.17" fill="#180a33" />
    <path fill="#180a33" d="M240.26,494.31c.86.22.83,1,1.73,1.15A1.23,1.23,0,0,1,240.26,494.31Z" />
    <circle cx="240.42" cy="495.31" r=".27" fill="#fff" />
    <path fill="#eb8571"
      d="M233.31,497c.71-1.2,2.31-1.8,2.47-3.32,0-.38.62-.26.58.12-.14,1.31-1.23,2.09-2.09,2.94-.35.36-.81.92-.51,1.44s1,.61,1.51.71c.37.06.25.65-.13.58a2.73,2.73,0,0,1-1.75-.79A1.43,1.43,0,0,1,233.31,497Z" />
    <path fill="#220e47"
      d="M231.76,500.39a3.26,3.26,0,0,0,.43,1.95,2.59,2.59,0,0,0,4.36.74,3.33,3.33,0,0,0,1.07-1.74A9.42,9.42,0,0,1,231.76,500.39Z" />
    <path fill="#ff578d"
      d="M232.19,502.34a2.59,2.59,0,0,0,4.36.74,5.1,5.1,0,0,0-2.14-.81A5.19,5.19,0,0,0,232.19,502.34Z" />
    <path fill="#220e47"
      d="M234.37,478c3.17-1.61,7.69.18,11,1.41a8.54,8.54,0,0,1,4.67,3.59,10.2,10.2,0,0,1,.88,5.58,20.82,20.82,0,0,1-2.42,9.28l-.64-1.84a20.31,20.31,0,0,0-2.16-8.41,14.44,14.44,0,0,0-5.47-6.29,14.23,14.23,0,0,0-5.89,1.1c-2.57.94-3.85,3.36-5.06,5.82C229.5,484.64,231.2,479.55,234.37,478Z" />
    <path fill="#ffc4ad"
      d="M614.38,582.3c2.48-4.36,12.25-47.4,18.09-66.38-7.24-1.59-20.22,11.59-27.45,10-7.11,18-10.7,21.59-17.78,47.48C583.39,587.51,606.3,596.5,614.38,582.3Z" />
    <path fill="#ffc4ad"
      d="M588.05,572.5c-6,13.29-16.14,51-20.09,65.8l21.55,5.43c7.64-17.73,17.54-35.85,25.4-61.51C619.19,568.23,597.37,551.88,588.05,572.5Z" />
    <polygon fill="#ffc4ad"
      points="653.85 503.08 661.51 520.38 667.8 503.08 667.62 497.02 667.36 488.65 655.2 489.64 654.62 495.47 653.85 503.08" />
    <path fill="#edc5c5" d="M655.14,493.49c3.11,7.09,7.67,8.38,12.48,0l-.26-4.83-12.16,1Z" />
    <path fill="#ffc4ad"
      d="M649.44,482.57a17,17,0,0,0,1.89,6.24,16.45,16.45,0,0,0,4.87,5.51,9.46,9.46,0,0,0,1.71,1.06,7.6,7.6,0,0,0,9-1.28,14.84,14.84,0,0,0,5.47-10.26c1-9,1.91-17.09-3.43-21.19-4.38-3.36-11.88-3.18-16.23.43C647.51,467.38,648.5,475.15,649.44,482.57Z" />
    <path fill="#ffc4ad"
      d="M648.69,477.62s-1.41-1.43-2.23-.15-.6,6.34,3.17,6.4C649.63,483.87,649.09,477.68,648.69,477.62Z" />
    <path fill="#ffc4ad"
      d="M673.3,477.62s1.4-1.43,2.22-.15.6,6.34-3.17,6.4C672.35,483.87,672.89,477.68,673.3,477.62Z" />
    <path fill="#220e47"
      d="M672.55,480.16a13,13,0,0,0-1.67-6.73c-.08.69.11,3.88,1,4.16-4.86,1.16-6-4.47-6-4.47a11.92,11.92,0,0,0-.49,4.05,4.64,4.64,0,0,1-2.62-4.73l-1.46.89s1.77-2.91,1.39-4.05c-.81-2.49-5.57-.47-5.57-.47-5.3-3.27-5,10-5,10-.18-.36-2-2.3-1.48-3.5-.7,2.2-.55,6.24-.66,6.16-2.24-4.87-5.93-12-1.44-18.22a9.31,9.31,0,0,1,9.81-3.49c13.62-4.29,16.52,5.08,17.08,9.19C675.9,471.82,673.76,479.59,672.55,480.16Z" />
    <path fill="#ffc4ad"
      d="M647.08,790.23l-5.26-66.54L622.13,727s-6,59.68-5.49,60.77,3.24,13.94,3.24,13.94l20.44-1.23Z" />
    <path fill="#ff578d"
      d="M617.37,788.85c-1.56-.05-24.4-.34-35,16.76a33.41,33.41,0,0,0-4.82,16.4l75.21,0h0l-5.52-31.74S628.87,802.19,617.37,788.85Z" />
    <rect width="80.96" height="8.86" x="574.51" y="822.01" fill="#fff" rx="4.08" />
    <path fill="#f4f4f4"
      d="M598.31,808.12a1.33,1.33,0,0,1-1.27-.9c-3-8.35-6.41-9.29-6.44-9.3a1.32,1.32,0,0,1-1.07-1.55,1.37,1.37,0,0,1,1.58-1.08c.5.09,5,1.16,8.46,11a1.34,1.34,0,0,1-.82,1.71A1.36,1.36,0,0,1,598.31,808.12Z" />
    <path fill="#f4f4f4"
      d="M607.12,803.62a1.35,1.35,0,0,1-1.27-.89c-2.94-8.33-6.36-9.29-6.4-9.3a1.34,1.34,0,1,1,.48-2.64c.5.09,5,1.16,8.46,11a1.34,1.34,0,0,1-.82,1.71A1.19,1.19,0,0,1,607.12,803.62Z" />
    <path fill="#ffc4ad"
      d="M674.05,789.48,679.31,723,699,726.24s6,59.67,5.49,60.77S701.25,801,701.25,801l-20.44-1.23Z" />
    <path fill="#ff578d"
      d="M703.77,788.1c1.55,0,24.39-.33,35,16.77a33.54,33.54,0,0,1,4.83,16.39l-75.22,0h0l5.52-31.75S692.26,801.45,703.77,788.1Z" />
    <rect width="80.96" height="8.86" x="665.66" y="821.26" fill="#fff" rx="4.08"
      transform="rotate(-180 706.14 825.69)" />
    <path fill="#f4f4f4"
      d="M722.83,807.38a1.42,1.42,0,0,1-.45-.08,1.35,1.35,0,0,1-.82-1.72c3.5-9.88,8-11,8.46-11a1.34,1.34,0,0,1,.51,2.64c-.14,0-3.53,1.08-6.44,9.3A1.34,1.34,0,0,1,722.83,807.38Z" />
    <path fill="#f4f4f4"
      d="M714,802.88a1.42,1.42,0,0,1-.45-.08,1.35,1.35,0,0,1-.82-1.71c3.5-9.88,8-11,8.46-11a1.34,1.34,0,0,1,.52,2.63c-.14,0-3.53,1.08-6.44,9.3A1.36,1.36,0,0,1,714,802.88Z" />
    <path fill="#38bef2" d="M693.8,581.66s19.3,205.75,17.75,206.06-47,1.39-47,1.39L659,589.1Z" />
    <path fill="#38bef2" d="M627.64,581.66S604.18,788.8,605.73,789.11s45.64,0,45.64,0L665.7,588.54Z" />
    <path fill="#f7f7f7"
      d="M622,538.16c.25,1.47.49,2.88.69,4.23,3.85,24.33,1.72,31,4.29,36.61h0v0a15.08,15.08,0,0,0,2,3.12c6,7.54,16.84,11.78,28.25,12.86a61.9,61.9,0,0,0,11.55,0c11.29-1,21.75-5.18,27.16-12.32h0c.22-.28.42-.56.62-.84,2.46-3.63,1.83-5.28,3-24.62l.06-1.06v0c1.89-31.86,5.08-54-1.64-57.17a.76.76,0,0,0-.22-.11l-.12,0c-.36-.12-1-.27-2.15-.54A54.49,54.49,0,0,0,683,496.87a51.65,51.65,0,0,0-15.26,2.48,7,7,0,0,1-5.22,7.37,5.72,5.72,0,0,1-1.66.19,5.91,5.91,0,0,1-1.83-.32h0a7,7,0,0,1-4.72-7.32c-9.54-1.36-23.93-2.29-31.46,3.08a11.79,11.79,0,0,0-3.26,3.42C618.15,508,617.08,510,622,538.16Z" />
    <path fill="#ffb300"
      d="M662.47,506.72h0l6.24,88.3.06,3.48c12.07,2.63,23.41,2.55,33.45-2.25.22-.28-3.89-19.68-2.76-39l.06-1.06c8.85,9.17,18.83,14,22.12,16.58q1.53-20.32,3.08-40.63a78,78,0,0,0-11.06-20c-6.73-8.78-12.73-11.73-14.41-12.56l-1.37-.62a.76.76,0,0,0-.22-.11l-.12,0c-.36-.12-1-.27-2.15-.54A54.49,54.49,0,0,0,683,496.87a51.65,51.65,0,0,0-15.26,2.48A7,7,0,0,1,662.47,506.72Z" />
    <path fill="#ffb300"
      d="M601.09,547.75l21.55-5.36c3.85,24.33-1.76,53.61-1.76,53.61.75,3.32,30.09,7,36.33,1.79l-.05-2.78,1.8-88.42a7,7,0,0,1-4.72-7.32c-9.54-1.36-23.93-2.29-31.46,3.08v0a45.55,45.55,0,0,0-8.33,6.95C601.5,523,601,541.15,601.09,547.75Z" />
    <path fill="#ffc4ad"
      d="M704.33,557.49c0,8.83,16.93,18.86,25.75,18.86S744.9,568.83,744.9,560s-13-22.1-21.85-22.1S704.33,548.67,704.33,557.49Z" />
    <path fill="#ffb300"
      d="M623.93,557.13c-.92,0-10.43-3.4-12.84-4.13-9-2.74-19.7-7-19.7-7s14.28-32.74,30.5-42.47a45.86,45.86,0,0,1,9.91-4.42v0C630.17,512,626,557.2,623.93,557.13Z" />
    <path fill="#ebcfb7"
      d="M611.09,553,627,520.76l-3.48,36.29C623.51,557.11,613.5,553.73,611.09,553Z"
      style="mix-blend-mode:multiply" />
    <path fill="#ffb300"
      d="M732.31,538.18c-.65,4.48-10.43,14.67-17.59,21.72-3.41,3.36-6.22,6-7.18,7a91.28,91.28,0,0,1-7.1-6.6,39.63,39.63,0,0,1-6.5-8.39c-14-24.52,2.74-51.56,3.6-53.06C708,502.86,724.74,523.26,732.31,538.18Z" />
    <path fill="#ffc4ad"
      d="M739.41,573.26c16.3-13.4,27.58-44.38,38.74-60.8l-19.33-11c-12.08,15.07-24.19,32-34.91,48C711.46,568.15,732.91,578.61,739.41,573.26Z" />
    <path fill="#ffc4ad"
      d="M803.89,485c1.56-6.15-.81-8.44-8.32-5.7,0,0,2.63-5.26-4.82-5.34s-19.67,16.49-24,15.15c-2.36-.73-7.35-11.39-11.91-7.53-3,2.56,4,20,4,20l19.33,11s26.75-13.53,29.51-20.93S803.89,485,803.89,485Z" />
    <path fill="#ffc4ad"
      d="M563.69,672.68c1.53,5.13,4.67,6.31,10,1.23,0,0,.75,6.39,6.74,2.53,6.26-4,7.29-22.17,7.29-22.17s2.95,11.26,8,8.11c6.16-3.83-6.16-23.66-6.16-23.66l-21.18-2.08s-12,24.09-11.07,31.93S563.69,672.68,563.69,672.68Z" />
    <path fill="#eba9a2"
      d="M795,478.78c-1.2,1-2.24,2.16-3.42,3.17s-2.49,2-3.81,3c-2.54,1.8-5.25,3.33-7.95,4.87-.14.08-.05.33.11.27a40.89,40.89,0,0,0,8.34-4.55q1.9-1.32,3.71-2.79a26.72,26.72,0,0,0,3.69-3.27A.47.47,0,0,0,795,478.78Z"
      style="mix-blend-mode:multiply" />
    <path fill="#eba9a2"
      d="M803.76,484.54c-.73.31-1.28,1.26-1.81,1.83s-1.28,1.32-1.94,1.95A43.52,43.52,0,0,1,791,495c-.8.45-1.62.86-2.44,1.26a19.86,19.86,0,0,0-2.58,1.26.17.17,0,0,0,.14.31v0a11.06,11.06,0,0,0,2.66-.93c.85-.36,1.68-.76,2.49-1.18a41.17,41.17,0,0,0,5.06-3.05,43.55,43.55,0,0,0,4.39-3.51c.71-.65,1.39-1.34,2.05-2s1.48-1.31,1.66-2.12A.43.43,0,0,0,803.76,484.54Z"
      style="mix-blend-mode:multiply" />
    <path fill="#eba9a2"
      d="M574.54,669.6c.28-1.54.61-3.08,1-4.6s.73-3,1.15-4.4a33.87,33.87,0,0,0,1.24-4.37c.08-.56-.79-.75-1-.29a19.16,19.16,0,0,0-1.45,4.47c-.41,1.52-.77,3.05-1.07,4.6s-.53,3-.74,4.46a16.79,16.79,0,0,0-.34,4.57c0,.24.36.19.42,0A25.53,25.53,0,0,0,574.54,669.6Z"
      style="mix-blend-mode:multiply" />
    <path fill="#eba9a2"
      d="M566.1,663c.38-1.49.82-3,1.3-4.41.23-.73.48-1.46.75-2.18a6.42,6.42,0,0,0,.65-2.16.5.5,0,0,0-.84-.36,5.47,5.47,0,0,0-.94,2c-.26.72-.5,1.45-.73,2.18-.48,1.52-.89,3.05-1.26,4.6a52.73,52.73,0,0,0-1.3,9.36c0,.22.35.28.39,0C564.64,669,565.32,666,566.1,663Z"
      style="mix-blend-mode:multiply" />
    <path fill="#ebcfb7"
      d="M714.72,559.9c-3.41,3.36-6.22,6-7.18,7a91.28,91.28,0,0,1-7.1-6.6l-.84-1.39s-6.47-29.31-6-29.31,10.4,30.51,14.49,30.84A28.39,28.39,0,0,0,714.72,559.9Z"
      style="mix-blend-mode:multiply" />
    <path fill="#220e47"
      d="M657.75,475.34c-1.28-.55-4.51-.21-5.1,2a4.64,4.64,0,0,1,4.46-.68C657.86,477,658,475.46,657.75,475.34Z" />
    <path fill="#220e47"
      d="M665,475.11c1.27-.55,4.5-.22,5.1,2a4.64,4.64,0,0,0-4.47-.68C664.88,476.77,664.71,475.23,665,475.11Z" />
    <circle cx="667.01" cy="479.6" r="1.35" fill="#180a33" />
    <path fill="#180a33" d="M667.05,478.25c1,.05,1.18.94,2.23.89A1.42,1.42,0,0,1,667.05,478.25Z" />
    <circle cx="667.47" cy="479.35" r=".32" fill="#fff" />
    <circle cx="655.72" cy="480.02" r="1.35" fill="#180a33" />
    <path fill="#180a33" d="M655.68,478.67c-1,.05-1.17.95-2.23.9A1.43,1.43,0,0,0,655.68,478.67Z" />
    <circle cx="655.26" cy="479.77" r=".32" fill="#fff" />
    <path fill="#eb8571"
      d="M663.37,483.25c-.42-1.55-2-2.7-1.72-4.45.07-.43-.61-.48-.69,0-.24,1.49.73,2.7,1.42,3.91.28.51.62,1.27.12,1.76a2.31,2.31,0,0,1-1.89.32c-.44,0-.48.64,0,.69a3.2,3.2,0,0,0,2.19-.34A1.65,1.65,0,0,0,663.37,483.25Z" />
    <path fill="#220e47"
      d="M664.89,487.51a3.77,3.77,0,0,1-.94,2.1,3.4,3.4,0,0,1-2.62,1.34,3.35,3.35,0,0,1-2.48-1.52,3.85,3.85,0,0,1-.81-2.22A10.86,10.86,0,0,0,664.89,487.51Z" />
    <path fill="#ff578d"
      d="M664,489.61a3.4,3.4,0,0,1-2.62,1.34,3.35,3.35,0,0,1-2.48-1.52,6,6,0,0,1,2.6-.42A6.12,6.12,0,0,1,664,489.61Z" />
    <polygon fill="#14a1d9"
      points="660.68 656.06 661.35 620.78 665.7 640.42 661.39 679.2 660.68 656.06" />
    <path fill="#6234a8"
      d="M167.42,228.07A79.21,79.21,0,0,0,271,264.66c.9-.41,1.81-.84,2.71-1.29a79.21,79.21,0,1,0-71-141.61c-.9.45-1.79.92-2.67,1.4A79.21,79.21,0,0,0,167.42,228.07Z" />
    <circle cx="238.23" cy="192.56" r="68.61" fill="#fff" />
    <path fill="#fff"
      d="M279.76,171.74a46.46,46.46,0,1,0-20.71,62.35A46.51,46.51,0,0,0,279.76,171.74Z" />
    <circle cx="238.23" cy="192.56" r="57.77" fill="#ff578d"
      transform="rotate(-5.66 238.192 192.459)" />
    <circle cx="238.23" cy="192.56" r="29.65" fill="#fff" transform="rotate(-18.17 238.226 192.565)" />
    <path fill="#ffb70f"
      d="M254.38,184.47a18.07,18.07,0,1,0-8,24.24A18.08,18.08,0,0,0,254.38,184.47Z" />
    <path fill="#1bb9e6"
      d="M341.45,103s-3.44,11.58-3.07,18.29a14.2,14.2,0,0,0,.54,3.18L317,139l.23-13.5,7.48-9.53,2.93,6.24.53-8.09Z" />
    <path fill="#1bb9e6"
      d="M363.7,134.17S349,131.68,343,128.7A14,14,0,0,1,340.3,127l-21.95,14.5,12.5,5.1,13.1-3.33-5.89-4.28,10.79,2Z" />
    <path fill="#412582"
      d="M242.32,190l-.23-2.39,96.93-64a2.33,2.33,0,0,1,3.38.76,2.28,2.28,0,0,1-1,2.79l-96.93,64Z" />
    <polygon fill="#1bb9e6" points="260.31 189.65 250.76 175.4 235.84 195.73 260.31 189.65" />
    <polygon fill="#1bb9e6" points="266.82 185.28 257.27 171.03 242.35 191.37 266.82 185.28" />
    <path fill="#ffc700"
      d="M946,144.08c26.44-29,72.45-40.12,108.83-15,35.65,24.57,42.4,70,25.7,104.63-16.15,33.49-52.13,54.55-91.5,53.74a26,26,0,0,0-21.53,10.81L959.69,309l-42.38-30.69,7.1-9.81a26.27,26.27,0,0,0,3.38-24.35C915.14,209.11,922,170.4,946,144.08Z" />
    <path fill="#ffb70f"
      d="M921.81,215.67a104.68,104.68,0,0,0,6,28.54,26.27,26.27,0,0,1-3.38,24.33l-7.09,9.8L959.7,309l7.83-10.8a26,26,0,0,1,21.53-10.81c39.36.8,75.34-20.25,91.48-53.75a87.05,87.05,0,0,0,5.83-60,88.43,88.43,0,0,1-164.56,42Z" />
    <path fill="#ffe433"
      d="M966.91,210.45a16.47,16.47,0,0,0,6.83,2.84c-9.13,23.4-35.75,54.73-46.15,76.25.82.65,2.27,1.85,3.12.59,13.39-19.33,35.51-50.76,45.25-71.86a11.92,11.92,0,0,0,14,6.43c.15,4.49,5.29,10.64,10.8,11-17.17,16.15-44.91,46.49-55.6,66.55.81.62,2.19,1.83,3.07.64,15.7-20.18,39-50.86,58.59-67,7.12,13.47,29.47,7.8,22.58-8.53-5.16-9.55-21.51-5.72-23.74,3.75-10.89,2.8-10.79-6.73-12.48-11.25a2.09,2.09,0,0,0-2.33-.09c-5.32,3.52-12.62-1.22-11.75-7.4,11.26-9,0-30.22-12.86-20.37C959.64,196.89,960.24,205.92,966.91,210.45Zm58.81,18.9c4.28,12.47-12.15,12.7-16.1,3.17C1011,226.2,1022,223.18,1025.72,229.35Zm-49.51-20c-4.87-.05-10.68-3.77-10.52-8.79C970.11,185.15,986.93,199.73,976.21,209.34Z" />
    <path fill="#542c8f"
      d="M959.69,309l-42.35-30.67c-3.84,5-29.34,39.2-11.48,55.83a21.68,21.68,0,0,0,4.28,3.1C931.52,349.1,956.1,314.25,959.69,309Z" />
    <path fill="#784abd"
      d="M907.41,293.48,948.18,323a3.87,3.87,0,1,0,4.53-6.26l-40.77-29.52a3.86,3.86,0,1,0-4.53,6.25Z" />
    <path fill="#784abd"
      d="M901.9,304.67,939,331.53a3.87,3.87,0,0,0,4.54-6.26l-37.09-26.86a3.87,3.87,0,0,0-4.53,6.26Z" />
    <path fill="#784abd"
      d="M914.13,283.17l41.75,30.24a3.87,3.87,0,1,0,4.54-6.26l-41.76-30.24a3.87,3.87,0,1,0-4.53,6.26Z" />
    <ellipse cx="1009.04" cy="151.69" fill="#ffe433" rx="47.06" ry="28.44"
      transform="rotate(-4 1007.945 151.603)" />
    <path fill="#ffc700"
      d="M972,103.93,962,79.24c-1.14-2.81-5.52-1-4.37,1.81l10,24.69C968.8,108.56,973.18,106.76,972,103.93Z" />
    <path fill="#ffc700"
      d="M1010.5,97.26q-.16-19.92-.31-39.82a2.17,2.17,0,0,0-2.42-1.85,2.21,2.21,0,0,0-1.85,2.42q.15,19.91.31,39.81a2.16,2.16,0,0,0,2.42,1.85A2.21,2.21,0,0,0,1010.5,97.26Z" />
    <path fill="#ffc700"
      d="M1060.82,86.64l-14.54,19.63c-1.81,2.44,1.91,5.37,3.72,2.92l14.54-19.63C1066.35,87.11,1062.63,84.19,1060.82,86.64Z" />
    <path fill="#22c2f0"
      d="M431.63,175.4a31.54,31.54,0,0,0-26.88,48.06l-7,16.67,19.92-4.9a31.55,31.55,0,1,0,14-59.83Z" />
    <path fill="#fff" d="M425.91,201v17H420a5.07,5.07,0,0,1-5.07-5.07V206A5.08,5.08,0,0,1,420,201Z" />
    <path fill="#fff"
      d="M447.41,217.55c-2,2.31-19.26.38-19.26.38V201a8.3,8.3,0,0,0,3.66-4.35c.83-2.8,2.08-6.38,4.24-5.81s3,6.41.3,10.16c0,0,8.41-2.28,10.69.21S449.32,215.39,447.41,217.55Z" />
    <path fill="#ff5c90"
      d="M487.19,110.16a5.72,5.72,0,0,1-3.27,8.46l-19.1,5.57a5.71,5.71,0,0,1-7.14-6.83L462.41,98a5.7,5.7,0,0,1,9.48-2.76L486.26,109A5.88,5.88,0,0,1,487.19,110.16Zm-23.9,7.68a1.07,1.07,0,0,0,.17.21,1,1,0,0,0,1,.24l16-4.68a1,1,0,0,0,.7-.73,1,1,0,0,0-.29-1l-12.07-11.56a1,1,0,0,0-1.68.5l-4,16.23A1,1,0,0,0,463.29,117.84Z" />
    <path fill="#ff5c90"
      d="M1224.42,707a5.72,5.72,0,0,1-3.27,8.46l-19.1,5.57a5.7,5.7,0,0,1-7.14-6.83l4.73-19.33a5.7,5.7,0,0,1,9.48-2.76l14.38,13.76A5.49,5.49,0,0,1,1224.42,707Zm-23.89,7.68a1.11,1.11,0,0,0,.16.21,1,1,0,0,0,1,.24l16-4.68a1,1,0,0,0,.7-.73,1,1,0,0,0-.28-1l-12.08-11.55a1,1,0,0,0-1-.24,1,1,0,0,0-.7.73l-4,16.23A1,1,0,0,0,1200.53,714.72Z" />
    <path fill="#ffb70f"
      d="M114.05,378.24l6.45-6.45a3.75,3.75,0,1,0-5.3-5.3l-6.45,6.45-6.45-6.45a3.75,3.75,0,1,0-5.3,5.3l6.45,6.45L97,384.67a3.75,3.75,0,1,0,5.3,5.3l6.44-6.43,6.44,6.43a3.75,3.75,0,1,0,5.3-5.3Z" />
    <path fill="#ffb70f"
      d="M1215.3,448.62l6.45-6.44a3.75,3.75,0,0,0-5.3-5.3l-6.45,6.44-6.44-6.44a3.75,3.75,0,1,0-5.3,5.3l6.44,6.44-6.43,6.44a3.75,3.75,0,1,0,5.3,5.3l6.43-6.44,6.44,6.44a3.75,3.75,0,1,0,5.3-5.3Z" />
    <path fill="#664eb3"
      d="M485,670.26a16.56,16.56,0,1,1,16.56-16.56A16.57,16.57,0,0,1,485,670.26Zm0-27a10.45,10.45,0,1,0,10.45,10.45A10.47,10.47,0,0,0,485,643.25Z" />
    <path fill="#664eb3"
      d="M832.42,94.19A16.56,16.56,0,1,1,849,77.63,16.58,16.58,0,0,1,832.42,94.19Zm0-27a10.45,10.45,0,1,0,10.46,10.45A10.46,10.46,0,0,0,832.42,67.18Z" />
  </g>
</svg>